<svg version="1.1" id="Layer_1" xmlns="http://www.w3.org/2000/svg" xmlns:xlink="http://www.w3.org/1999/xlink" x="0px" y="0px"
	 width="100%" viewBox="0 0 500 500" enable-background="new 0 0 500 500" xml:space="preserve">
<path fill="#FFFFFF" opacity="1.000000" stroke="none" 
	d="
M495.155640,501.000000 
	C330.137726,501.000000 165.641220,501.000000 1.072359,501.000000 
	C1.072359,334.385132 1.072359,167.770248 1.072359,1.077678 
	C167.611313,1.077678 334.222656,1.077678 500.916992,1.077678 
	C500.916992,167.607758 500.916992,334.215546 500.916992,501.000000 
	C499.227020,501.000000 497.452057,501.000000 495.155640,501.000000 
M80.026993,273.517090 
	C79.762527,273.708008 79.267220,273.898193 79.266609,274.089935 
	C79.229774,285.642487 79.233597,297.195160 79.233597,308.942535 
	C85.545593,308.942535 91.520798,309.224518 97.459587,308.879547 
	C107.573074,308.292145 114.440338,301.271759 114.740440,291.720856 
	C115.040276,282.178009 108.581284,274.847717 98.368484,273.833313 
	C92.603806,273.260712 86.755669,273.528351 80.026993,273.517090 
M311.985443,287.505798 
	C311.985443,294.574524 311.985443,301.643280 311.985443,308.728333 
	C315.163544,308.728333 317.582794,308.728333 319.948029,308.728333 
	C321.488556,300.062744 321.488525,300.062378 330.521912,299.009827 
	C331.180573,298.933044 331.854187,298.928741 332.497681,298.786224 
	C338.302551,297.500549 342.350525,293.086670 342.863403,287.517395 
	C343.392761,281.768982 340.428101,276.014282 334.677429,274.840332 
	C327.397461,273.354187 319.816071,273.344574 311.985443,272.665222 
	C311.985443,278.234558 311.985443,282.372223 311.985443,287.505798 
M205.993683,274.359772 
	C200.120361,272.562012 194.232452,272.002167 188.447342,274.582001 
	C184.258133,276.450134 181.959076,279.759369 182.113831,284.412201 
	C182.266953,289.015869 185.097214,291.657501 189.237396,292.990570 
	C192.078964,293.905548 195.150085,294.244415 197.833328,295.466949 
	C199.680450,296.308533 201.039093,298.222321 202.616058,299.656860 
	C200.753555,300.758026 198.837158,302.858551 197.039276,302.761566 
	C192.699585,302.527527 188.415268,301.266693 183.751175,300.349579 
	C183.125244,301.752960 182.336243,303.522034 181.413544,305.590820 
	C189.082016,309.939606 196.679077,311.106750 204.593460,307.872894 
	C208.799530,306.154297 211.116348,302.769104 210.939545,298.072906 
	C210.773666,293.667297 208.123184,291.099762 204.160309,289.800995 
	C201.008713,288.768127 197.655350,288.251831 194.643219,286.931915 
	C192.995743,286.209961 191.870499,284.296234 190.509766,282.919952 
	C192.191284,281.834747 193.872559,279.847290 195.554367,279.846832 
	C199.388977,279.845764 203.223846,280.818695 207.295944,281.431610 
	C207.081360,279.245117 211.719086,276.752014 205.993683,274.359772 
M227.015747,298.405334 
	C225.403976,294.586731 223.777435,290.774323 222.183807,286.948151 
	C219.656082,280.879211 219.118530,280.631073 212.175537,282.537323 
	C215.648315,290.614136 219.189407,298.650635 222.553726,306.760468 
	C224.180206,310.681183 221.942139,313.322906 217.771835,312.615265 
	C216.666260,312.427643 215.607254,311.965485 214.392410,311.587555 
	C213.498795,313.396088 212.715515,314.981323 211.948288,316.534088 
	C218.615585,321.052094 225.979172,320.040527 229.133759,313.531860 
	C234.083130,303.320129 238.305328,292.755981 242.854950,282.296326 
	C237.246353,280.475830 234.441132,282.262329 232.852661,287.393982 
	C231.602859,291.431610 229.323029,295.150421 227.015747,298.405334 
M266.274597,305.221252 
	C266.208893,312.499084 271.328186,307.604218 274.111298,309.105164 
	C274.111298,302.703613 274.358276,296.888977 274.040955,291.105255 
	C273.731995,285.473999 270.132782,281.700653 264.512177,281.476471 
	C261.193970,281.344177 257.820587,282.595642 254.472031,283.224792 
	C254.572266,283.033508 254.672516,282.842255 254.772751,282.650970 
	C252.110107,282.264587 249.447449,281.878235 246.520844,281.453583 
	C246.520844,291.036285 246.520844,299.777344 246.520844,308.766235 
	C249.151947,308.766235 251.553635,308.766235 254.557205,308.766235 
	C254.557205,303.604980 254.308853,298.623383 254.638855,293.680420 
	C254.885605,289.984406 257.484222,288.075714 261.136932,288.229950 
	C264.845001,288.386505 266.228760,290.863556 266.241608,294.310944 
	C266.253998,297.635437 266.263580,300.959961 266.274597,305.221252 
M121.190674,286.794037 
	C120.537338,287.948761 119.717171,289.041077 119.257858,290.268402 
	C116.360107,298.011322 120.370094,306.234497 128.168762,308.686890 
	C136.751465,311.385803 145.970642,306.927490 147.914734,299.137878 
	C150.039505,290.624359 145.077332,283.073242 136.199814,281.532593 
	C130.587662,280.558624 125.664940,282.053802 121.190674,286.794037 
M394.806305,285.725037 
	C392.530151,284.410309 390.394165,282.669037 387.949890,281.866028 
	C382.121552,279.951294 376.694427,281.313080 372.307770,285.518768 
	C368.588531,289.084595 367.354156,293.663666 368.666016,298.751099 
	C370.315948,305.149750 374.729004,308.376923 381.047668,309.325745 
	C387.371490,310.275360 392.645691,308.273712 396.162109,302.966339 
	C399.872040,297.366943 399.136597,291.662750 394.806305,285.725037 
M284.852448,284.272888 
	C279.579468,288.550262 278.165466,294.021149 280.237152,300.326477 
	C282.005219,305.707581 287.407349,309.117859 293.900116,309.347534 
	C300.183319,309.569824 304.004822,307.458801 306.393890,302.276154 
	C304.541931,301.292358 302.678802,300.302612 301.006683,299.414368 
	C299.640686,300.477692 298.705597,301.473206 297.559418,302.046814 
	C294.317566,303.669281 291.205292,303.060944 289.087952,300.243927 
	C286.651489,297.002319 286.691467,293.281708 289.353760,290.150604 
	C291.669342,287.427277 295.283142,286.676849 297.840576,288.956238 
	C301.632629,292.335968 303.775391,290.014954 306.510162,288.065979 
	C301.944336,280.642029 294.460999,279.250092 284.852448,284.272888 
M162.631805,308.965546 
	C169.207321,309.901245 175.198883,309.378510 179.020798,302.484070 
	C176.910980,301.352844 175.055679,300.358124 173.327576,299.431549 
	C168.366974,303.536652 164.696960,303.875793 161.669678,300.719391 
	C159.217255,298.162354 159.131073,292.812164 161.499405,290.150604 
	C164.344376,286.953430 168.274963,287.272339 173.531845,291.289154 
	C175.238571,290.326965 177.045532,289.308258 178.859772,288.285461 
	C175.177048,282.154572 169.972504,280.122650 162.907257,281.761932 
	C156.334457,283.286957 152.208420,287.843811 151.743713,294.091095 
	C151.216812,301.174835 154.248856,305.581238 162.631805,308.965546 
M356.658264,301.463348 
	C356.666046,290.685547 356.666046,290.685547 365.397705,287.935699 
	C365.397705,285.847473 365.397705,283.743042 365.397705,280.663727 
	C362.137604,281.695343 359.406433,282.559570 356.675232,283.423828 
	C356.760834,283.083466 356.846405,282.743103 356.932007,282.402740 
	C354.220459,281.978912 351.508942,281.555115 348.557007,281.093719 
	C348.557007,290.932465 348.557007,299.810089 348.557007,308.656860 
	C351.369293,308.656860 353.779358,308.656860 356.657501,308.656860 
	C356.657501,306.341522 356.657501,304.374481 356.658264,301.463348 
z"/>
<path fill="#2044A2" opacity="1.000000" stroke="none" 
	d="
M80.486061,273.467285 
	C86.755669,273.528351 92.603806,273.260712 98.368484,273.833313 
	C108.581284,274.847717 115.040276,282.178009 114.740440,291.720856 
	C114.440338,301.271759 107.573074,308.292145 97.459587,308.879547 
	C91.520798,309.224518 85.545593,308.942535 79.233597,308.942535 
	C79.233597,297.195160 79.229774,285.642487 79.266609,274.089935 
	C79.267220,273.898193 79.762527,273.708008 80.486061,273.467285 
M97.779068,301.938416 
	C104.917427,299.339020 107.708412,294.434174 105.862114,287.733276 
	C104.128944,281.442963 96.686127,278.668274 87.355309,280.892944 
	C87.355309,287.791931 87.355309,294.712097 87.355309,302.025574 
	C90.688400,302.025574 93.800926,302.025574 97.779068,301.938416 
z"/>
<path fill="#FF6AC6" opacity="1.000000" stroke="none" 
	d="
M311.985443,287.007843 
	C311.985443,282.372223 311.985443,278.234558 311.985443,272.665222 
	C319.816071,273.344574 327.397461,273.354187 334.677429,274.840332 
	C340.428101,276.014282 343.392761,281.768982 342.863403,287.517395 
	C342.350525,293.086670 338.302551,297.500549 332.497681,298.786224 
	C331.854187,298.928741 331.180573,298.933044 330.521912,299.009827 
	C321.488525,300.062378 321.488556,300.062744 319.948029,308.728333 
	C317.582794,308.728333 315.163544,308.728333 311.985443,308.728333 
	C311.985443,301.643280 311.985443,294.574524 311.985443,287.007843 
M321.752747,292.148865 
	C324.077972,292.147125 326.641785,292.759247 328.662506,291.973938 
	C330.753540,291.161346 333.193390,289.312408 333.912170,287.344025 
	C335.064758,284.187653 333.345947,281.305176 329.820740,280.636658 
	C326.822510,280.068085 323.688232,280.216736 319.755249,280.000916 
	C320.178284,284.472931 320.527222,288.161743 321.752747,292.148865 
z"/>
<path fill="#2044A2" opacity="1.000000" stroke="none" 
	d="
M206.357864,274.536896 
	C211.719086,276.752014 207.081360,279.245117 207.295944,281.431610 
	C203.223846,280.818695 199.388977,279.845764 195.554367,279.846832 
	C193.872559,279.847290 192.191284,281.834747 190.509766,282.919952 
	C191.870499,284.296234 192.995743,286.209961 194.643219,286.931915 
	C197.655350,288.251831 201.008713,288.768127 204.160309,289.800995 
	C208.123184,291.099762 210.773666,293.667297 210.939545,298.072906 
	C211.116348,302.769104 208.799530,306.154297 204.593460,307.872894 
	C196.679077,311.106750 189.082016,309.939606 181.413544,305.590820 
	C182.336243,303.522034 183.125244,301.752960 183.751175,300.349579 
	C188.415268,301.266693 192.699585,302.527527 197.039276,302.761566 
	C198.837158,302.858551 200.753555,300.758026 202.616058,299.656860 
	C201.039093,298.222321 199.680450,296.308533 197.833328,295.466949 
	C195.150085,294.244415 192.078964,293.905548 189.237396,292.990570 
	C185.097214,291.657501 182.266953,289.015869 182.113831,284.412201 
	C181.959076,279.759369 184.258133,276.450134 188.447342,274.582001 
	C194.232452,272.002167 200.120361,272.562012 206.357864,274.536896 
z"/>
<path fill="#2044A2" opacity="1.000000" stroke="none" 
	d="
M227.258240,298.708069 
	C229.323029,295.150421 231.602859,291.431610 232.852661,287.393982 
	C234.441132,282.262329 237.246353,280.475830 242.854950,282.296326 
	C238.305328,292.755981 234.083130,303.320129 229.133759,313.531860 
	C225.979172,320.040527 218.615585,321.052094 211.948288,316.534088 
	C212.715515,314.981323 213.498795,313.396088 214.392410,311.587555 
	C215.607254,311.965485 216.666260,312.427643 217.771835,312.615265 
	C221.942139,313.322906 224.180206,310.681183 222.553726,306.760468 
	C219.189407,298.650635 215.648315,290.614136 212.175537,282.537323 
	C219.118530,280.631073 219.656082,280.879211 222.183807,286.948151 
	C223.777435,290.774323 225.403976,294.586731 227.258240,298.708069 
z"/>
<path fill="#2044A2" opacity="1.000000" stroke="none" 
	d="
M266.274536,304.752869 
	C266.263580,300.959961 266.253998,297.635437 266.241608,294.310944 
	C266.228760,290.863556 264.845001,288.386505 261.136932,288.229950 
	C257.484222,288.075714 254.885605,289.984406 254.638855,293.680420 
	C254.308853,298.623383 254.557205,303.604980 254.557205,308.766235 
	C251.553635,308.766235 249.151947,308.766235 246.520844,308.766235 
	C246.520844,299.777344 246.520844,291.036285 246.520844,281.453583 
	C249.447449,281.878235 252.110107,282.264587 254.772751,282.650970 
	C254.672516,282.842255 254.572266,283.033508 254.472031,283.224792 
	C257.820587,282.595642 261.193970,281.344177 264.512177,281.476471 
	C270.132782,281.700653 273.731995,285.473999 274.040955,291.105255 
	C274.358276,296.888977 274.111298,302.703613 274.111298,309.105164 
	C271.328186,307.604218 266.208893,312.499084 266.274536,304.752869 
z"/>
<path fill="#2044A2" opacity="1.000000" stroke="none" 
	d="
M121.429047,286.515503 
	C125.664940,282.053802 130.587662,280.558624 136.199814,281.532593 
	C145.077332,283.073242 150.039505,290.624359 147.914734,299.137878 
	C145.970642,306.927490 136.751465,311.385803 128.168762,308.686890 
	C120.370094,306.234497 116.360107,298.011322 119.257858,290.268402 
	C119.717171,289.041077 120.537338,287.948761 121.429047,286.515503 
M130.384583,288.459900 
	C126.321548,291.803345 125.188553,295.958496 127.543755,299.626984 
	C129.468109,302.624359 132.308319,303.619659 135.707138,302.460205 
	C139.322662,301.226868 141.136871,297.318115 139.973404,293.051117 
	C138.731598,288.496887 135.428055,287.344818 130.384583,288.459900 
z"/>
<path fill="#FF6AC6" opacity="1.000000" stroke="none" 
	d="
M395.045502,286.006836 
	C399.136597,291.662750 399.872040,297.366943 396.162109,302.966339 
	C392.645691,308.273712 387.371490,310.275360 381.047668,309.325745 
	C374.729004,308.376923 370.315948,305.149750 368.666016,298.751099 
	C367.354156,293.663666 368.588531,289.084595 372.307770,285.518768 
	C376.694427,281.313080 382.121552,279.951294 387.949890,281.866028 
	C390.394165,282.669037 392.530151,284.410309 395.045502,286.006836 
M384.288513,302.877686 
	C389.263397,301.841339 390.571869,298.351471 390.004181,293.898956 
	C389.557953,290.398712 387.643433,288.111603 383.802063,287.966431 
	C379.788025,287.814728 376.973877,290.281372 376.418182,294.499176 
	C375.835388,298.922668 378.138611,301.657654 384.288513,302.877686 
z"/>
<path fill="#2044A2" opacity="1.000000" stroke="none" 
	d="
M285.166565,284.074219 
	C294.460999,279.250092 301.944336,280.642029 306.510162,288.065979 
	C303.775391,290.014954 301.632629,292.335968 297.840576,288.956238 
	C295.283142,286.676849 291.669342,287.427277 289.353760,290.150604 
	C286.691467,293.281708 286.651489,297.002319 289.087952,300.243927 
	C291.205292,303.060944 294.317566,303.669281 297.559418,302.046814 
	C298.705597,301.473206 299.640686,300.477692 301.006683,299.414368 
	C302.678802,300.302612 304.541931,301.292358 306.393890,302.276154 
	C304.004822,307.458801 300.183319,309.569824 293.900116,309.347534 
	C287.407349,309.117859 282.005219,305.707581 280.237152,300.326477 
	C278.165466,294.021149 279.579468,288.550262 285.166565,284.074219 
z"/>
<path fill="#2044A2" opacity="1.000000" stroke="none" 
	d="
M162.249329,308.884216 
	C154.248856,305.581238 151.216812,301.174835 151.743713,294.091095 
	C152.208420,287.843811 156.334457,283.286957 162.907257,281.761932 
	C169.972504,280.122650 175.177048,282.154572 178.859772,288.285461 
	C177.045532,289.308258 175.238571,290.326965 173.531845,291.289154 
	C168.274963,287.272339 164.344376,286.953430 161.499405,290.150604 
	C159.131073,292.812164 159.217255,298.162354 161.669678,300.719391 
	C164.696960,303.875793 168.366974,303.536652 173.327576,299.431549 
	C175.055679,300.358124 176.910980,301.352844 179.020798,302.484070 
	C175.198883,309.378510 169.207321,309.901245 162.249329,308.884216 
z"/>
<path fill="#FF6AC6" opacity="1.000000" stroke="none" 
	d="
M356.657898,301.935425 
	C356.657501,304.374481 356.657501,306.341522 356.657501,308.656860 
	C353.779358,308.656860 351.369293,308.656860 348.557007,308.656860 
	C348.557007,299.810089 348.557007,290.932465 348.557007,281.093719 
	C351.508942,281.555115 354.220459,281.978912 356.932007,282.402740 
	C356.846405,282.743103 356.760834,283.083466 356.675232,283.423828 
	C359.406433,282.559570 362.137604,281.695343 365.397705,280.663727 
	C365.397705,283.743042 365.397705,285.847473 365.397705,287.935699 
	C356.666046,290.685547 356.666046,290.685547 356.657898,301.935425 
z"/>
<path fill="#F9FAFD" opacity="1.000000" stroke="none" 
	d="
M97.346260,301.981995 
	C93.800926,302.025574 90.688400,302.025574 87.355309,302.025574 
	C87.355309,294.712097 87.355309,287.791931 87.355309,280.892944 
	C96.686127,278.668274 104.128944,281.442963 105.862114,287.733276 
	C107.708412,294.434174 104.917427,299.339020 97.346260,301.981995 
z"/>
<path fill="#F9FAFD" opacity="1.000000" stroke="none" 
	d="
M321.314453,291.999695 
	C320.527222,288.161743 320.178284,284.472931 319.755249,280.000916 
	C323.688232,280.216736 326.822510,280.068085 329.820740,280.636658 
	C333.345947,281.305176 335.064758,284.187653 333.912170,287.344025 
	C333.193390,289.312408 330.753540,291.161346 328.662506,291.973938 
	C326.641785,292.759247 324.077972,292.147125 321.314453,291.999695 
z"/>
<path fill="#F9FAFD" opacity="1.000000" stroke="none" 
	d="
M130.755127,288.307922 
	C135.428055,287.344818 138.731598,288.496887 139.973404,293.051117 
	C141.136871,297.318115 139.322662,301.226868 135.707138,302.460205 
	C132.308319,303.619659 129.468109,302.624359 127.543755,299.626984 
	C125.188553,295.958496 126.321548,291.803345 130.755127,288.307922 
z"/>
<path fill="#FFFFFF" opacity="1.000000" stroke="none" 
	d="
M383.897430,302.896912 
	C378.138611,301.657654 375.835388,298.922668 376.418182,294.499176 
	C376.973877,290.281372 379.788025,287.814728 383.802063,287.966431 
	C387.643433,288.111603 389.557953,290.398712 390.004181,293.898956 
	C390.571869,298.351471 389.263397,301.841339 383.897430,302.896912 
z"/>
</svg>